<svg xmlns="http://www.w3.org/2000/svg" viewBox="0 0 240.02 240.02"><defs><style>.a08a917f-80b8-4c05-bed1-0f80ef3a0013{fill:#50ade5;}.fe0e2747-857e-4540-8105-af1403de8358{fill:#95cbef;}.bd2456a8-29d6-4e51-a398-3964e39e4da4{fill:#83c3ec;}.f7e2f0e7-accd-4d05-ae33-f041e0d6cac8{fill:#61b4e7;}.e2b21e74-d060-4bea-935f-0c8c3735964b{fill:#c9e4f7;}</style></defs><title>Element 1</title><g id="bf326cfc-50cc-4a6a-8e3a-df54786289e7" data-name="Ebene 2"><g id="bd824524-062a-4097-8764-c0d004d1ab8f" data-name="svg3336"><path id="f51a6620-423c-4558-855d-7f21c9fc203e" data-name="path3368" class="a08a917f-80b8-4c05-bed1-0f80ef3a0013" d="M240,120A120,120,0,1,1,120,0,120,120,0,0,1,240,120"/><path id="b8bae3c4-574f-4e72-9bda-1b317f65e4ed" data-name="path3370" class="fe0e2747-857e-4540-8105-af1403de8358" d="M139.51,74.36a39.53,39.53,0,0,1-38.13.49A39.53,39.53,0,0,1,75,101.62a39.42,39.42,0,0,1,.1,36.58,39.47,39.47,0,0,1,27,26.63,39.48,39.48,0,0,1,36.77.45,39.53,39.53,0,0,1,26.58-26.21,39.49,39.49,0,0,1,.11-38.34,39.49,39.49,0,0,1-26-26.37"/><path id="b1d2088d-2bc2-461e-bba1-2401b56a7a66" data-name="path3372" class="bd2456a8-29d6-4e51-a398-3964e39e4da4" d="M50,81.78A79.89,79.89,0,0,1,81.82,50.12,39.49,39.49,0,0,1,82.08,29,39.5,39.5,0,0,0,28.49,82.23,39.81,39.81,0,0,1,50,81.78"/><path id="abe6fb66-de7b-4a67-9a47-10ec42eb2d8b" data-name="path3374" class="f7e2f0e7-accd-4d05-ae33-f041e0d6cac8" d="M75,101.62a39.53,39.53,0,0,0,26.41-26.77A39.59,39.59,0,0,1,81.82,50.12,79.89,79.89,0,0,0,50,81.78a39.55,39.55,0,0,1,25,19.84"/><path id="ae6445bb-3c43-4f91-a4bb-9e17cce29c0d" data-name="path3376" class="bd2456a8-29d6-4e51-a398-3964e39e4da4" d="M190.44,158.33a80,80,0,0,1-32.07,32.27,39.77,39.77,0,0,1-.62,21.08,39.48,39.48,0,0,0,53.4-53.78A39,39,0,0,1,200,159.5a39.61,39.61,0,0,1-9.56-1.17"/><path id="b2790e4c-d1ff-4073-aa98-99fc1c6842ca" data-name="path3378" class="f7e2f0e7-accd-4d05-ae33-f041e0d6cac8" d="M165.42,139.07a39.53,39.53,0,0,0-26.58,26.21,39.57,39.57,0,0,1,19.53,25.32,80,80,0,0,0,32.07-32.27,39.53,39.53,0,0,1-25-19.26"/><path id="e85fb92d-58fc-4042-9e91-5b778bfaa846" data-name="path3380" class="bd2456a8-29d6-4e51-a398-3964e39e4da4" d="M81.66,190.6a80,80,0,0,1-32.08-32.27A39.69,39.69,0,0,1,29.17,158a39.5,39.5,0,0,0,53,53.37,39.13,39.13,0,0,1-.53-20.76"/><path id="a8cd6a5d-c79e-41e4-960e-d77db912dc69" data-name="path3382" class="f7e2f0e7-accd-4d05-ae33-f041e0d6cac8" d="M102.07,164.83a39.47,39.47,0,0,0-27-26.63,39.54,39.54,0,0,1-25.49,20.14A80,80,0,0,0,81.66,190.6a39.44,39.44,0,0,1,20.41-25.77"/><path id="bea6c7a9-19db-4ca2-9959-fefa06fdfa3a" data-name="path3384" class="bd2456a8-29d6-4e51-a398-3964e39e4da4" d="M158.2,50.12a79.89,79.89,0,0,1,31.85,31.66,39.72,39.72,0,0,1,21.78.55,39.5,39.5,0,0,0-54-53.62,39.85,39.85,0,0,1,.34,21.41"/><path id="ea894bc2-dc4d-4763-afc5-e0bd52ff4223" data-name="path3386" class="f7e2f0e7-accd-4d05-ae33-f041e0d6cac8" d="M139.51,74.36a39.49,39.49,0,0,0,26,26.37,39.57,39.57,0,0,1,24.52-19A79.89,79.89,0,0,0,158.2,50.12a39.59,39.59,0,0,1-18.69,24.24"/><path id="b58f298c-085b-46a9-acdf-71a1785560fa" data-name="path3388" class="bd2456a8-29d6-4e51-a398-3964e39e4da4" d="M97.4,43.67a80.37,80.37,0,0,1,45.51.08,39.07,39.07,0,0,1,6.52-8.62,39.56,39.56,0,0,1,8.42-6.42,39.5,39.5,0,0,0-75.77.3,39.75,39.75,0,0,1,9.29,6.9,39.24,39.24,0,0,1,6,7.76"/><path id="b650d0ae-ac5c-4d10-9580-9a868b0df4d1" data-name="path3390" class="f7e2f0e7-accd-4d05-ae33-f041e0d6cac8" d="M101.38,74.85a39.53,39.53,0,0,0,38.13-.49,39.6,39.6,0,0,1,3.4-30.62,80.45,80.45,0,0,0-45.51-.07,39.53,39.53,0,0,1,4,31.18"/><path id="a99f7c04-1640-4b18-bc7d-73585ff9591e" data-name="path3392" class="e2b21e74-d060-4bea-935f-0c8c3735964b" d="M81.82,50.12A78.84,78.84,0,0,1,97.4,43.67a39.24,39.24,0,0,0-6-7.76A39.75,39.75,0,0,0,82.08,29a39.49,39.49,0,0,0-.26,21.11"/><path id="b9f25948-0136-473f-a027-b6d86368914e" data-name="path3394" class="bd2456a8-29d6-4e51-a398-3964e39e4da4" d="M101.38,74.85a39.53,39.53,0,0,0-4-31.18,78.84,78.84,0,0,0-15.58,6.45,39.59,39.59,0,0,0,19.56,24.73"/><path id="b48e71a8-50b1-40ac-84a5-8124fe176f7b" data-name="path3396" class="e2b21e74-d060-4bea-935f-0c8c3735964b" d="M142.91,43.75a80,80,0,0,1,15.29,6.37A39.94,39.94,0,0,0,159.5,40a39.46,39.46,0,0,0-1.65-11.31,39.24,39.24,0,0,0-8.42,6.42,39.75,39.75,0,0,0-6.53,8.62"/><path id="aaa6a09f-5f54-4e6b-8f43-df58d3c73943" data-name="path3398" class="bd2456a8-29d6-4e51-a398-3964e39e4da4" d="M139.51,74.36A39.59,39.59,0,0,0,158.2,50.12a80,80,0,0,0-15.29-6.37,39.57,39.57,0,0,0-3.4,30.61"/><path id="bb4a5fec-4975-4d33-a1d2-c55dfb5c37b6" data-name="path3400" class="bd2456a8-29d6-4e51-a398-3964e39e4da4" d="M142.61,197.15a80.38,80.38,0,0,1-45,.07,39.72,39.72,0,0,1-15.47,14.14,39.49,39.49,0,0,0,75.55.32,39.25,39.25,0,0,1-9.1-6.79,40.18,40.18,0,0,1-6-7.74"/><path id="f1d00890-3e84-4014-b2cc-b290f0987f48" data-name="path3402" class="f7e2f0e7-accd-4d05-ae33-f041e0d6cac8" d="M138.84,165.28a39.48,39.48,0,0,0-36.77-.45,39.58,39.58,0,0,1-4.41,32.39,80.29,80.29,0,0,0,45-.07,39.6,39.6,0,0,1-3.77-31.87"/><path id="abd0891d-d86f-4a1c-9ac3-e247d0479f5b" data-name="path3404" class="e2b21e74-d060-4bea-935f-0c8c3735964b" d="M158.37,190.6a79.41,79.41,0,0,1-15.76,6.55,39.74,39.74,0,0,0,15.13,14.54A39.31,39.31,0,0,0,159.5,200a39.84,39.84,0,0,0-1.13-9.39"/><path id="b084331e-e57b-4aa4-8af2-fd756ee9a1d6" data-name="path3406" class="bd2456a8-29d6-4e51-a398-3964e39e4da4" d="M138.84,165.28a39.6,39.6,0,0,0,3.77,31.87,79.41,79.41,0,0,0,15.76-6.55,39.57,39.57,0,0,0-19.53-25.32"/><path id="e9ee995e-88be-4cf1-bc2b-72f7447fbda9" data-name="path3408" class="e2b21e74-d060-4bea-935f-0c8c3735964b" d="M97.66,197.22a79.11,79.11,0,0,1-16-6.62,39.13,39.13,0,0,0,.53,20.76,39.72,39.72,0,0,0,15.47-14.14"/><path id="b2264331-61ba-41a4-a92d-90cca7b9f2d8" data-name="path3410" class="bd2456a8-29d6-4e51-a398-3964e39e4da4" d="M102.07,164.83A39.44,39.44,0,0,0,81.66,190.6a79.11,79.11,0,0,0,16,6.62,39.58,39.58,0,0,0,4.41-32.39"/><path id="aedb7c1f-695d-4d2c-8fa3-53c0054ce6ab" data-name="path3412" class="bd2456a8-29d6-4e51-a398-3964e39e4da4" d="M239.49,120a39.51,39.51,0,0,0-27.66-37.69,39.6,39.6,0,0,1-15.16,15.19,80.38,80.38,0,0,1,.08,45.49,40.24,40.24,0,0,1,7.75,6,39.81,39.81,0,0,1,6.65,8.87A39.51,39.51,0,0,0,239.49,120"/><path id="e5d62c37-eeea-456d-8dc4-87bab60a0bdd" data-name="path3414" class="f7e2f0e7-accd-4d05-ae33-f041e0d6cac8" d="M165.53,100.73a39.49,39.49,0,0,0-.11,38.34A39.62,39.62,0,0,1,196.75,143a80.38,80.38,0,0,0-.08-45.49,39.58,39.58,0,0,1-31.14,3.22"/><path id="b0652712-1b24-4a23-b546-cb122b8f423c" data-name="path3416" class="e2b21e74-d060-4bea-935f-0c8c3735964b" d="M196.75,143a79.56,79.56,0,0,1-6.31,15.34A40.11,40.11,0,0,0,200,159.5a39,39,0,0,0,11.15-1.6A39.81,39.81,0,0,0,204.5,149a40.64,40.64,0,0,0-7.75-6"/><path id="afce907e-1934-46a9-acca-535ebfb1c1b0" data-name="path3418" class="bd2456a8-29d6-4e51-a398-3964e39e4da4" d="M165.42,139.07a39.49,39.49,0,0,0,25,19.26A79.21,79.21,0,0,0,196.75,143a39.58,39.58,0,0,0-31.33-3.93"/><path id="f2c26a1e-b153-4d32-949c-cd7c9c021b1f" data-name="path3420" class="e2b21e74-d060-4bea-935f-0c8c3735964b" d="M190.05,81.78a79.43,79.43,0,0,1,6.62,15.73,39.67,39.67,0,0,0,15.16-15.18,39.72,39.72,0,0,0-21.78-.55"/><path id="b3448312-ca4c-451e-a7d4-b851cdef9274" data-name="path3422" class="bd2456a8-29d6-4e51-a398-3964e39e4da4" d="M165.53,100.73a39.58,39.58,0,0,0,31.14-3.22,79.43,79.43,0,0,0-6.62-15.73,39.57,39.57,0,0,0-24.52,19"/><path id="e39b0087-2fa3-4d6c-bc98-ccc5a7ff8603" data-name="path3424" class="bd2456a8-29d6-4e51-a398-3964e39e4da4" d="M43.2,142.75a80.38,80.38,0,0,1,.07-44.95A39.6,39.6,0,0,1,28.49,82.23,39.5,39.5,0,0,0,29.17,158a39.62,39.62,0,0,1,7.13-9.75,40.67,40.67,0,0,1,6.9-5.49"/><path id="fb727b02-d054-421c-96e7-d08a961ebe92" data-name="path3426" class="f7e2f0e7-accd-4d05-ae33-f041e0d6cac8" d="M75.07,138.2a39.42,39.42,0,0,0-.1-36.58,39.54,39.54,0,0,1-31.7-3.82,80.38,80.38,0,0,0-.07,45,39.58,39.58,0,0,1,31.87-4.55"/><path id="a2cf13ce-e9b4-4851-947c-cfd1afda0c28" data-name="path3428" class="e2b21e74-d060-4bea-935f-0c8c3735964b" d="M43.27,97.8a79.24,79.24,0,0,1,6.7-16,39.81,39.81,0,0,0-21.48.45,39.11,39.11,0,0,0,7,9.54,39.55,39.55,0,0,0,7.75,6"/><path id="b188e043-7ae9-4468-9fac-fa063a67a381" data-name="path3430" class="bd2456a8-29d6-4e51-a398-3964e39e4da4" d="M75,101.62A39.55,39.55,0,0,0,50,81.78a79.24,79.24,0,0,0-6.7,16A39.58,39.58,0,0,0,75,101.62"/><path id="ad9229ec-948b-4cb4-b20b-f4dfb4494e08" data-name="path3432" class="e2b21e74-d060-4bea-935f-0c8c3735964b" d="M49.58,158.33a79.27,79.27,0,0,1-6.38-15.58,40.67,40.67,0,0,0-6.9,5.49A39.62,39.62,0,0,0,29.17,158a39.69,39.69,0,0,0,20.41.34"/><path id="a30308dd-1b68-480d-ad09-05a99500fd40" data-name="path3434" class="bd2456a8-29d6-4e51-a398-3964e39e4da4" d="M75.07,138.2a39.58,39.58,0,0,0-31.87,4.55,79.61,79.61,0,0,0,6.38,15.59A39.54,39.54,0,0,0,75.07,138.2"/></g></g></svg>