<svg xmlns="http://www.w3.org/2000/svg" viewBox="0 0 514.35 134.62"><defs><style>.fb0d71ec-0f7f-4dcb-9387-5517b610c50d{fill:#656263;}</style></defs><title>Element 2</title><g id="a79ac200-0f79-4248-8c75-ac1479905ce6" data-name="Ebene 2"><g id="ac915081-1dff-4665-879d-d944b31fce63" data-name="svg3336"><path id="b4345e90-61de-452a-beb0-30c9aaa2dbdc" data-name="path3348" class="fb0d71ec-0f7f-4dcb-9387-5517b610c50d" d="M16.15,9.34H0V1H43.21V9.34H27.07V65.42H16.15V9.34Z"/><path id="fce882ac-2196-474c-a707-e2db3965e25c" data-name="path3350" class="fb0d71ec-0f7f-4dcb-9387-5517b610c50d" d="M71.69,58.71c11,0,14-11.76,14-25.48s-3-25.48-14-25.48-14,11.76-14,25.48,2.89,25.48,14,25.48m-26-25.48C45.66,14.47,51.54,0,71.69,0s26,14.47,26,33.23-6,33.22-26,33.22-26-14.46-26-33.22"/><path id="b030b58d-e56d-40d2-befa-7b392da7e3dc" data-name="path3352" class="fb0d71ec-0f7f-4dcb-9387-5517b610c50d" d="M119.67,30.24h5.69c6.53,0,11.48-3.27,11.48-10.64,0-8.31-4.3-10.83-11.48-10.83h-5.69ZM108.75,1h16.61c10,0,22.58,1.49,22.58,18.57C147.94,35,134.32,38,125.36,38h-5.69V65.42H108.75Z"/><path id="a51d0cad-7b0d-4441-b5ca-b5cca7435dce" data-name="path3354" class="fb0d71ec-0f7f-4dcb-9387-5517b610c50d" d="M178.84,58.71c11,0,14-11.76,14-25.48s-3-25.48-14-25.48-14,11.76-14,25.48,2.89,25.48,14,25.48m-26-25.48c0-18.76,5.88-33.23,26-33.23s26,14.47,26,33.23-6,33.22-26,33.22-26-14.46-26-33.22"/><path id="bb319222-d477-42a8-9618-972387822c5b" data-name="path3356" class="fb0d71ec-0f7f-4dcb-9387-5517b610c50d" d="M215.89,1h14.93l17.92,51.42h.19L266.94,1h14.84v64.4h-10V14.65h-.18L253.87,65.43H243.79L226.06,14.65h-.19V65.43h-10V1Z"/><path id="aabd3d58-066a-44a1-8f0e-c02e34354e44" data-name="path3358" class="fb0d71ec-0f7f-4dcb-9387-5517b610c50d" d="M295.5,1h37.61V9.34H306.42V27.91h25.29v8.3H306.42V57.12h27.44v8.31H295.5V1Z"/><path id="f5b2b48d-632d-4a6b-8181-1bd2b8ef37f6" data-name="path3360" class="fb0d71ec-0f7f-4dcb-9387-5517b610c50d" d="M355,57.67h5c11,0,16.24-4.84,16.24-24.63,0-15.68-2.71-24.27-16.24-24.27h-5ZM344,1h16c20.63,0,28.28,9,28.28,32,0,29.77-14.94,32.38-28.28,32.38H344Z"/><path id="bd69f2ed-ea99-4b19-b5e5-d8e168015a74" data-name="path3362" class="fb0d71ec-0f7f-4dcb-9387-5517b610c50d" d="M399,1h10.92v64.4H399V1Z"/><path id="b6cbdfba-885e-4c3a-8b09-78f257fc2b2b" data-name="path3364" class="fb0d71ec-0f7f-4dcb-9387-5517b610c50d" d="M465.35,62.72a46.74,46.74,0,0,1-17.54,3.73c-18.76,0-27.07-13.44-27.07-33.5,0-19,7-32.95,25.39-32.95,14.93,0,21.65,8.68,21.65,18.67H455.64c0-5-1.11-10.92-9.51-10.92-11.3,0-13.35,13.44-13.35,23.52,0,15.4,4.39,26.6,17.55,26.6,7.18,0,13.25-3.74,15-4.77v9.62Z"/><path id="beb7e06e-e0aa-40d5-be0d-5593e4d7804c" data-name="path3366" class="fb0d71ec-0f7f-4dcb-9387-5517b610c50d" d="M509.5,11.85c-4.29-1.68-9.61-4.1-16.15-4.1-5.41,0-9.7,2.42-9.7,7.93,0,11.39,30.7,13.07,30.7,32.48,0,12-9.71,18.29-23.71,18.29a71.61,71.61,0,0,1-17.82-2.71V52.45c3.83,2.33,10.08,6.26,18.2,6.26,8.58,0,11.29-4.77,11.29-9,0-14-30.7-14.84-30.7-33.13,0-11.48,10-16.62,22.12-16.62A79.14,79.14,0,0,1,509.5,1.78V11.85Z"/><path id="b2d9a1a2-70cb-4ec3-802d-1b31235ed345" data-name="path3436" class="fb0d71ec-0f7f-4dcb-9387-5517b610c50d" d="M107.31,112.82a11.54,11.54,0,0,0,2.79.27c4.07,0,6.56-2,6.56-5.55s-2.45-5.12-6.17-5.12a13.9,13.9,0,0,0-3.18.27v10.13Zm-3.37-12.54a34.83,34.83,0,0,1,6.48-.54c3.33,0,5.78.78,7.33,2.17a7.06,7.06,0,0,1,2.32,5.44,7.53,7.53,0,0,1-2,5.58c-1.78,1.9-4.69,2.88-8,2.88a11.83,11.83,0,0,1-2.71-.24v10.51h-3.37v-25.8Z"/><path id="f3a9700e-afed-47fe-89b5-5bb61c842bd2" data-name="path3438" class="fb0d71ec-0f7f-4dcb-9387-5517b610c50d" d="M123.84,113.16c0-2.21,0-4.11-.15-5.85h3l.16,3.68h.11a5.69,5.69,0,0,1,5.24-4.11,6.71,6.71,0,0,1,.93.08v3.22a9.46,9.46,0,0,0-1.16-.08c-2.41,0-4.11,1.82-4.58,4.34a10.38,10.38,0,0,0-.12,1.6v10h-3.41V113.16Z"/><path id="a2a08c56-d92f-4c16-a205-f9900e1affc5" data-name="path3440" class="fb0d71ec-0f7f-4dcb-9387-5517b610c50d" d="M148.05,114.87c0-2.17-.89-5.54-4.7-5.54-3.49,0-5,3.17-5.23,5.54Zm-10,2.44c.07,4.58,3,6.48,6.4,6.48a12.3,12.3,0,0,0,5.2-1l.62,2.44a15.2,15.2,0,0,1-6.29,1.2c-5.74,0-9.23-3.84-9.23-9.46s3.37-10.13,8.85-10.13c6.13,0,7.72,5.4,7.72,8.85a7.89,7.89,0,0,1-.12,1.58Z"/><path id="b642c090-fded-41ca-9f19-31f1f64018b6" data-name="path3442" class="fb0d71ec-0f7f-4dcb-9387-5517b610c50d" d="M169,125.38a13.11,13.11,0,0,1-5.39,1.09c-5.66,0-9.35-3.84-9.35-9.58s4-10,10.09-10a10.67,10.67,0,0,1,4.73,1l-.78,2.6a8.28,8.28,0,0,0-3.95-.89c-4.31,0-6.64,3.22-6.64,7.09,0,4.35,2.79,7,6.52,7a9.88,9.88,0,0,0,4.19-.89l.58,2.56Z"/><path id="ba26a1bf-d8ec-4306-b151-0a2c4bc123c6" data-name="path3444" class="fb0d71ec-0f7f-4dcb-9387-5517b610c50d" d="M173,107.31h3.41v18.77H173Zm1.63-3.18a2.12,2.12,0,1,1,2.17-2.1,2,2,0,0,1-2.17,2.1Z"/><path id="b12d2533-84a3-451d-a49c-37990e74151a" data-name="path3446" class="fb0d71ec-0f7f-4dcb-9387-5517b610c50d" d="M181.57,122.59a9.65,9.65,0,0,0,4.54,1.32c2.44,0,3.61-1.2,3.61-2.79s-1-2.48-3.46-3.41c-3.41-1.25-5-3.11-5-5.32,0-3,2.48-5.51,6.48-5.51a8.63,8.63,0,0,1,4.58,1.17l-.82,2.44a7.6,7.6,0,0,0-3.83-1.09c-2,0-3.11,1.17-3.11,2.56,0,1.55,1.08,2.25,3.53,3.22,3.22,1.21,4.93,2.84,4.93,5.63,0,3.33-2.6,5.66-7,5.66a10.66,10.66,0,0,1-5.27-1.32Z"/><path id="eaa44be0-8790-4064-b053-9ddd197f7aee" data-name="path3448" class="fb0d71ec-0f7f-4dcb-9387-5517b610c50d" d="M197.4,107.31h3.42v18.77H197.4Zm1.63-3.18A2,2,0,0,1,197,102a2.12,2.12,0,1,1,2.09,2.1Z"/><path id="a55c98ae-f4a6-4962-871d-e193342ded40" data-name="path3450" class="fb0d71ec-0f7f-4dcb-9387-5517b610c50d" d="M214.28,124c3.26,0,5.71-3.07,5.71-7.33,0-3.18-1.6-7.18-5.63-7.18s-5.74,3.72-5.74,7.29c0,4.12,2.32,7.22,5.62,7.22Zm-.15,2.56c-5,0-9-3.72-9-9.66,0-6.28,4.16-10,9.31-10,5.4,0,9,3.92,9,9.62,0,7-4.85,10-9.3,10Z"/><path id="e5cd1b9c-b97c-49d6-a35d-51e28121c2af" data-name="path3452" class="fb0d71ec-0f7f-4dcb-9387-5517b610c50d" d="M227.78,112.39c0-2,0-3.53-.15-5.08h3l.2,3.06h.08a7,7,0,0,1,6.2-3.49c2.6,0,6.63,1.55,6.63,8v11.21h-3.41V115.26c0-3-1.12-5.59-4.35-5.59a5,5,0,0,0-4.8,5.08v11.33h-3.42V112.39Z"/><path id="b9376db9-4104-4a35-9280-2f26cc4f42ce" data-name="path3454" class="fb0d71ec-0f7f-4dcb-9387-5517b610c50d" d="M261,118.56a7.15,7.15,0,0,0,.11,1.24,5.29,5.29,0,0,0,5.12,4c3.61,0,5.7-2.91,5.7-7.21,0-3.8-1.93-7-5.58-7a5.42,5.42,0,0,0-5.16,4.2,5.56,5.56,0,0,0-.19,1.43Zm-3.42-20H261v11.75H261a7,7,0,0,1,6.4-3.41c4.65,0,7.91,3.88,7.91,9.54,0,6.75-4.27,10.09-8.46,10.09a6.73,6.73,0,0,1-6.28-3.53h-.08l-.19,3.1h-2.95c.11-1.28.15-3.18.15-4.85V98.54Z"/><path id="a9b73558-4b9c-451d-a618-ef5715cc1fa8" data-name="path3456" class="fb0d71ec-0f7f-4dcb-9387-5517b610c50d" d="M280.59,107.31l4.07,11.09c.47,1.24.93,2.72,1.24,3.85H286c.35-1.13.74-2.57,1.2-3.92l3.73-11h3.61l-5.13,13.38c-2.44,6.44-4.11,9.7-6.44,11.76a9.71,9.71,0,0,1-4.19,2.17l-.85-2.83a9.32,9.32,0,0,0,3-1.67,10.94,10.94,0,0,0,2.87-3.8,2.32,2.32,0,0,0,.27-.82,2.46,2.46,0,0,0-.27-.89l-6.9-17.3Z"/><path id="e3f1bd1b-48a2-4e91-b3fd-15efe1c273b3" data-name="path3458" class="fb0d71ec-0f7f-4dcb-9387-5517b610c50d" d="M309.34,123.45a22.71,22.71,0,0,0,3.41.15c7.22,0,11.14-4,11.14-11.1,0-6.16-3.46-10.08-10.59-10.08a18.73,18.73,0,0,0-4,.35Zm-3.41-23.17a49.23,49.23,0,0,1,7.21-.54c4.85,0,8.31,1.13,10.59,3.26s3.73,5.16,3.73,9.39a14,14,0,0,1-3.77,10.16c-2.48,2.45-6.51,3.77-11.6,3.77a45.69,45.69,0,0,1-6.16-.32V100.28Z"/><path id="aed5f2fa-8ed3-4cde-ab4a-1cababed0b9e" data-name="path3460" class="fb0d71ec-0f7f-4dcb-9387-5517b610c50d" d="M343.75,114.87c0-2.17-.89-5.54-4.69-5.54-3.49,0-5,3.17-5.24,5.54Zm-10,2.44c.08,4.58,3,6.48,6.41,6.48a12.25,12.25,0,0,0,5.19-1l.62,2.44a15.14,15.14,0,0,1-6.28,1.2c-5.75,0-9.24-3.84-9.24-9.46s3.38-10.13,8.85-10.13c6.13,0,7.72,5.4,7.72,8.85a7.89,7.89,0,0,1-.12,1.58Z"/><path id="e4994214-95fc-4979-bd49-2f3fb759b35c" data-name="path3462" class="fb0d71ec-0f7f-4dcb-9387-5517b610c50d" d="M350.82,122.59a9.61,9.61,0,0,0,4.53,1.32c2.45,0,3.61-1.2,3.61-2.79s-1-2.48-3.45-3.41c-3.42-1.25-5-3.11-5-5.32,0-3,2.49-5.51,6.48-5.51a8.63,8.63,0,0,1,4.58,1.17l-.81,2.44a7.68,7.68,0,0,0-3.85-1.09c-2,0-3.1,1.17-3.1,2.56,0,1.55,1.09,2.25,3.53,3.22,3.22,1.21,4.93,2.84,4.93,5.63,0,3.33-2.6,5.66-7,5.66a10.66,10.66,0,0,1-5.27-1.32Z"/><path id="ae871123-efda-4b22-8282-559a9d91759c" data-name="path3464" class="fb0d71ec-0f7f-4dcb-9387-5517b610c50d" d="M366.65,107.31h3.41v18.77h-3.41Zm1.63-3.18a2.12,2.12,0,1,1,2.17-2.1,2.06,2.06,0,0,1-2.13,2.1Z"/><path id="ba817dee-9644-48bf-9c9c-e703d527a423" data-name="path3466" class="fb0d71ec-0f7f-4dcb-9387-5517b610c50d" d="M388.37,114.68a5,5,0,0,0-.19-1.52,4.89,4.89,0,0,0-4.78-3.64c-3.25,0-5.58,2.76-5.58,7.14,0,3.64,1.9,6.75,5.54,6.75a4.91,4.91,0,0,0,4.74-3.53,5.71,5.71,0,0,0,.27-1.83v-3.37Zm3.41,8.65c0,4.34-.89,6.94-2.67,8.61a10.31,10.31,0,0,1-6.87,2.25,12.08,12.08,0,0,1-6.24-1.55l.85-2.64a10.26,10.26,0,0,0,5.51,1.51c3.49,0,6.05-1.82,6.05-6.59v-2h-.08a6.66,6.66,0,0,1-6,3.14c-4.66,0-8-4-8-9.2,0-6.36,4.15-9.93,8.49-9.93a6.22,6.22,0,0,1,5.86,3.26h.08l.12-2.83h3c-.12,1.32-.16,2.87-.16,5.12v10.9Z"/><path id="fe57a3d0-a00b-489b-8281-7d9270c16e3b" data-name="path3468" class="fb0d71ec-0f7f-4dcb-9387-5517b610c50d" d="M397.18,112.39c0-2,0-3.53-.15-5.08h3l.19,3.06h.08a7,7,0,0,1,6.21-3.49c2.6,0,6.63,1.55,6.63,8v11.21h-3.41V115.26c0-3-1.13-5.59-4.34-5.59a5,5,0,0,0-4.82,5.08v11.33h-3.41V112.39Z"/></g></g></svg>